<?xml version="1.0" standalone="no"?>
<!DOCTYPE svg PUBLIC "-//W3C//DTD SVG 20010904//EN"
 "http://www.w3.org/TR/2001/REC-SVG-20010904/DTD/svg10.dtd">
<svg version="1.0" xmlns="http://www.w3.org/2000/svg"
 width="512.000000pt" height="512.000000pt" viewBox="0 0 512.000000 512.000000"
 preserveAspectRatio="xMidYMid meet">
<metadata>
Created by potrace 1.11, written by Peter Selinger 2001-2013
</metadata>
<g transform="translate(0.000000,512.000000) scale(0.100000,-0.100000)"
fill="#000000" stroke="none">
<path d="M2320 5110 c-320 -33 -613 -118 -899 -261 -267 -133 -469 -279 -678
-491 -207 -208 -342 -397 -472 -659 -123 -246 -205 -506 -247 -784 -28 -181
-25 -541 4 -730 26 -165 75 -361 126 -500 53 -143 183 -402 263 -525 603 -918
1723 -1351 2785 -1077 180 47 303 94 493 187 268 132 471 278 682 491 207 209
342 398 472 660 123 247 205 507 247 784 25 165 26 531 1 700 -40 278 -124
545 -248 794 -130 262 -265 451 -472 660 -211 213 -414 359 -682 491 -258 127
-487 200 -757 241 -151 23 -480 33 -618 19z m-86 -931 l26 -31 0 -501 0 -501
28 26 c82 77 231 149 343 167 191 32 350 -10 460 -119 66 -65 102 -131 131
-238 20 -73 22 -107 25 -582 4 -488 5 -506 24 -526 29 -31 102 -49 197 -47
105 2 146 15 161 51 8 20 11 182 9 564 -3 528 -3 537 -24 565 -33 44 -76 63
-153 70 l-71 6 0 103 0 104 38 0 c20 1 154 9 297 19 l260 19 33 -31 c28 -27
32 -37 32 -84 l0 -53 56 45 c114 93 242 140 363 133 86 -5 124 -21 177 -75 58
-58 78 -113 78 -213 -1 -97 -21 -156 -73 -207 -41 -42 -90 -57 -166 -50 -137
10 -214 98 -205 230 l2 28 -49 -24 c-61 -31 -116 -75 -154 -123 l-29 -37 0
-484 0 -484 23 -23 c24 -24 86 -39 215 -52 l62 -6 0 -104 0 -104 -877 2 -878
3 -3 102 -3 101 78 7 c92 8 136 20 155 42 10 13 13 112 13 502 0 434 -2 491
-17 529 -25 62 -64 108 -112 131 -113 55 -314 -5 -410 -122 l-36 -44 0 -482 0
-482 25 -23 c28 -26 76 -42 158 -51 l57 -7 0 -104 0 -104 -440 0 -440 0 0 105
c0 93 2 105 18 105 9 0 51 5 92 10 61 8 79 14 98 35 l22 26 0 971 c0 967 0
972 -21 1015 -27 55 -56 70 -166 83 -130 15 -120 19 -115 -47 6 -86 -25 -159
-93 -221 -79 -73 -168 -91 -255 -51 -186 84 -220 321 -66 456 122 108 311 68
389 -82 16 -29 16 -28 17 63 0 50 3 92 8 93 54 5 544 37 594 38 62 1 68 -1 92
-30z m-737 -881 l33 -32 0 -760 c0 -431 -5 -802 -10 -856 -14 -136 -44 -240
-102 -360 -44 -93 -61 -116 -142 -196 -105 -104 -189 -152 -312 -180 -108 -23
-249 -16 -324 18 -57 26 -123 89 -141 136 -30 77 7 216 67 259 47 34 108 46
167 33 83 -18 139 -62 207 -165 18 -27 35 -52 36 -54 8 -10 67 45 83 77 54
108 61 223 61 1017 0 672 -1 712 -19 745 -30 57 -55 69 -204 93 l-137 22 0 97
0 98 48 1 c39 1 596 33 642 38 8 0 29 -13 47 -31z"/>
</g>
</svg>
